<?xml version="1.0" encoding="UTF-8"?>
<svg version="1.1" xmlns="http://www.w3.org/2000/svg" width="512" height="512">
<path d="M0 0 C44.55 0 89.1 0 135 0 C135.1546875 31.370625 135.1546875 31.370625 135.3125 63.375 C135.35802002 69.96645996 135.40354004 76.55791992 135.45043945 83.34912109 C135.47302246 91.42895508 135.47302246 91.42895508 135.47721863 95.21743774 C135.48487288 97.8508177 135.50051102 100.48297794 135.52787781 103.11611938 C135.56889133 107.11588671 135.56952518 111.11476894 135.56762695 115.11474609 C135.58561749 116.2779154 135.60360804 117.44108471 135.62214375 118.63950157 C135.56888959 127.05604281 133.84265209 133.83514562 128.02321339 140.14253807 C119.86761439 147.85452126 110.99581242 149.17842587 100.125 149.1875 C99.36058594 149.19974609 98.59617187 149.21199219 97.80859375 149.22460938 C89.95666062 149.24460581 83.30006284 148.04005027 77 143 C71.81083542 137.78208658 69.71298755 133.0344607 69.625 125.6875 C69.75642811 118.83777621 70.91716884 114.26546334 75.6484375 109.25390625 C81.34461728 104.06764649 86.23508871 102.69362741 93.92578125 102.8046875 C94.58912476 102.80670166 95.25246826 102.80871582 95.93591309 102.81079102 C98.39484654 102.82119176 100.8536808 102.84911408 103.3125 102.875 C111.5728125 102.936875 111.5728125 102.936875 120 103 C120 87.82 120 72.64 120 57 C85.68 57 51.36 57 16 57 C12.67691025 96.35215365 12.67691025 96.35215365 27.5625 112.125 C31.0525798 114.9495297 34.29532619 117.55607906 38 120 C39.65 118.68 41.3 117.36 43 116 C82.67599307 154.98477368 101.66841189 215.93324865 102.1875 270.4375 C102.07734521 330.6144142 79.74448744 392.66209851 37.62109375 436.23828125 C35.78112349 438.17696825 34.07488735 440.08621202 32.390625 442.1484375 C30.44978684 444.46348956 28.61280258 446.38144339 26.3125 448.3125 C24.12801456 450.16588043 21.97771469 452.02104494 19.89453125 453.98828125 C6.57622107 466.52720667 -8.90905333 476.41945112 -25 485 C-25.79148437 485.4237793 -26.58296875 485.84755859 -27.3984375 486.28417969 C-50.36032104 498.36889267 -75.41578409 506.00347229 -101 510 C-101.77649902 510.12842285 -102.55299805 510.2568457 -103.35302734 510.38916016 C-163.29679902 519.94541361 -228.31361122 503.59877947 -277.30615234 468.34033203 C-288.2467519 460.3062232 -298.27948939 451.45730351 -308 442 C-308.86238281 441.17757813 -309.72476563 440.35515625 -310.61328125 439.5078125 C-351.25900448 400.05548702 -376.37679476 340.00885781 -377.3359375 283.6640625 C-377.37616883 279.98414506 -377.38250151 276.30510708 -377.375 272.625 C-377.37478851 271.66255371 -377.37457703 270.70010742 -377.37435913 269.70849609 C-377.33964245 253.82109158 -376.32233396 238.58248333 -373 223 C-372.81808105 222.11634766 -372.63616211 221.23269531 -372.44873047 220.32226562 C-364.8583087 184.37120629 -348.67779067 150.12467665 -325 122 C-324.52208008 121.4220166 -324.04416016 120.8440332 -323.55175781 120.24853516 C-313.38795795 107.95750625 -302.60947794 96.82515159 -290 87 C-288.7445289 85.99251485 -287.489339 84.98467923 -286.234375 83.9765625 C-244.06158439 50.48210919 -191.13208501 32.43370798 -137.375 32.6875 C-136.54650543 32.68965515 -135.71801086 32.6918103 -134.8644104 32.69403076 C-121.3905188 32.75002296 -108.25074058 33.37316976 -95 36 C-94.0188623 36.19335938 -93.03772461 36.38671875 -92.02685547 36.5859375 C-67.66063064 41.57072477 -37.87473478 49.35242819 -18 65 C-18.66 67.31 -19.32 69.62 -20 72 C-19.05898438 72.60328125 -18.11796875 73.2065625 -17.1484375 73.828125 C-15.89060733 74.63538914 -14.63279583 75.44268236 -13.375 76.25 C-12.75753906 76.64574219 -12.14007813 77.04148437 -11.50390625 77.44921875 C-10.89160156 77.84238281 -10.27929688 78.23554687 -9.6484375 78.640625 C-8.81578369 79.17478027 -8.81578369 79.17478027 -7.96630859 79.71972656 C-5.29655161 81.45801879 -2.65073807 83.23284129 0 85 C0 56.95 0 28.9 0 0 Z M16 16 C16 24.25 16 32.5 16 41 C50.32 41 84.64 41 120 41 C120 32.75 120 24.5 120 16 C85.68 16 51.36 16 16 16 Z " fill="#FEFDFE" transform="translate(377,0)"/>
<path d="M0 0 C21.31826899 18.30296446 38.06062874 45.94689534 40.31982422 74.46923828 C42.26148882 107.92617875 35.96029274 138.79141328 13.44873047 164.69042969 C12.76166016 165.51027344 12.07458984 166.33011719 11.36669922 167.17480469 C-7.00009773 188.48690781 -35.31205175 203.94245407 -63.55126953 206.69042969 C-96.11914895 208.77028413 -126.19269857 200.63435064 -151.55126953 179.69042969 C-152.53740234 178.88089844 -153.52353516 178.07136719 -154.53955078 177.23730469 C-175.31981061 159.23313664 -187.81921808 134.55392178 -192.55126953 107.69042969 C-192.72110352 106.93165527 -192.8909375 106.17288086 -193.06591797 105.39111328 C-198.30824286 76.22079241 -189.57487692 45.58276907 -172.92675781 21.59716797 C-153.97013386 -4.68100617 -125.97514302 -22.09664433 -93.98876953 -27.55957031 C-59.70239968 -31.77353756 -26.41621654 -22.30037544 0 0 Z " fill="#D2B9FE" transform="translate(315.55126953125,183.3095703125)"/>
<path d="M0 0 C0.82849457 0.00215515 1.65698914 0.0043103 2.5105896 0.00653076 C15.9844812 0.06252296 29.12425942 0.68566976 42.375 3.3125 C43.3561377 3.50585938 44.33727539 3.69921875 45.34814453 3.8984375 C69.71436936 8.88322477 99.50026522 16.66492819 119.375 32.3125 C117.73321735 37.08859498 115.10953298 41.10632904 112.375 45.3125 C107.94932042 44.72021574 104.84803029 43.03150145 101 40.8125 C76.53680967 27.34745376 49.01308261 20.15952029 21.375 17.3125 C20.56780518 17.2204126 19.76061035 17.1283252 18.92895508 17.03344727 C-37.98890518 10.77669877 -96.32013407 30.78970459 -140.82666016 65.85302734 C-144.43747516 68.7834444 -147.85584101 71.9028388 -151.24609375 75.0859375 C-153.34280132 77.04837315 -155.48827314 78.90492299 -157.6875 80.75 C-195.7362739 114.10044352 -219.15004151 168.30499458 -223.4140625 218.09228516 C-227.70110568 283.53915962 -207.6171908 342.77422349 -164.56640625 392.0234375 C-157.23369283 400.28975266 -149.29933946 407.4835146 -140.625 414.3125 C-139.67367187 415.09238281 -138.72234375 415.87226563 -137.7421875 416.67578125 C-120.42596174 430.55976277 -100.27542628 441.28982387 -79.625 449.3125 C-78.73683594 449.65925781 -77.84867188 450.00601562 -76.93359375 450.36328125 C-66.52154653 454.28863821 -55.97832648 457.34083431 -44.953125 458.91796875 C-42.625 459.3125 -42.625 459.3125 -40.625 460.3125 C-13.10528688 465.92639461 15.97428286 464.62090104 43.375 459.3125 C44.26300293 459.14169922 45.15100586 458.97089844 46.06591797 458.79492188 C99.87703881 448.17636059 148.70927905 415.96734151 180.375 371.3125 C180.8189209 370.69729492 181.2628418 370.08208984 181.72021484 369.44824219 C193.1723803 353.48881614 201.68801539 335.88397982 208.54785156 317.52539062 C209.29513866 315.52615502 210.06237176 313.53604403 210.8359375 311.546875 C230.37506139 259.6793825 225.98146639 198.97587436 203.9140625 148.84765625 C196.06881241 131.53041164 186.30148801 116.00145598 174.50390625 101.1171875 C172.58891585 98.59431942 170.94096403 96.06174875 169.375 93.3125 C170.1175 92.755625 170.86 92.19875 171.625 91.625 C174.4406117 89.41473526 174.4406117 89.41473526 176.5 86.625 C178.375 84.3125 178.375 84.3125 181.375 83.3125 C221.60219526 128.08147537 242.2653357 190.15844247 239.23876953 250.00634766 C235.7679887 306.27625896 214.55512091 362.6274072 174.99609375 403.55078125 C173.15612349 405.48946825 171.44988735 407.39871202 169.765625 409.4609375 C167.82478684 411.77598956 165.98780258 413.69394339 163.6875 415.625 C161.50301456 417.47838043 159.35271469 419.33354494 157.26953125 421.30078125 C143.95122107 433.83970667 128.46594667 443.73195112 112.375 452.3125 C111.58351563 452.7362793 110.79203125 453.16005859 109.9765625 453.59667969 C87.01467896 465.68139267 61.95921591 473.31597229 36.375 477.3125 C35.59850098 477.44092285 34.82200195 477.5693457 34.02197266 477.70166016 C-25.92179902 487.25791361 -90.93861122 470.91127947 -139.93115234 435.65283203 C-150.8717519 427.6187232 -160.90448939 418.76980351 -170.625 409.3125 C-171.48738281 408.49007813 -172.34976563 407.66765625 -173.23828125 406.8203125 C-213.88400448 367.36798702 -239.00179476 307.32135781 -239.9609375 250.9765625 C-240.00116883 247.29664506 -240.00750151 243.61760708 -240 239.9375 C-239.99978851 238.97505371 -239.99957703 238.01260742 -239.99935913 237.02099609 C-239.96464245 221.13359158 -238.94733396 205.89498333 -235.625 190.3125 C-235.44308105 189.42884766 -235.26116211 188.54519531 -235.07373047 187.63476562 C-227.4833087 151.68370629 -211.30279067 117.43717665 -187.625 89.3125 C-187.14708008 88.7345166 -186.66916016 88.1565332 -186.17675781 87.56103516 C-176.01295795 75.27000625 -165.23447794 64.13765159 -152.625 54.3125 C-151.3695289 53.30501485 -150.114339 52.29717923 -148.859375 51.2890625 C-106.68658439 17.79460919 -53.75708501 -0.25379202 0 0 Z " fill="#7048AD" transform="translate(239.625,32.6875)"/>
<path d="M0 0 C44.55 0 89.1 0 135 0 C135.103125 20.91375 135.20625 41.8275 135.3125 63.375 C135.35802002 69.96645996 135.40354004 76.55791992 135.45043945 83.34912109 C135.47302246 91.42895508 135.47302246 91.42895508 135.47721863 95.21743774 C135.48487288 97.8508177 135.50051102 100.48297794 135.52787781 103.11611938 C135.56889133 107.11588671 135.56952518 111.11476894 135.56762695 115.11474609 C135.58561749 116.2779154 135.60360804 117.44108471 135.62214375 118.63950157 C135.56888959 127.05604281 133.84265209 133.83514562 128.02321339 140.14253807 C119.86761439 147.85452126 110.99581242 149.17842587 100.125 149.1875 C99.36058594 149.19974609 98.59617187 149.21199219 97.80859375 149.22460938 C89.95666062 149.24460581 83.30006284 148.04005027 77 143 C71.81083542 137.78208658 69.71298755 133.0344607 69.625 125.6875 C69.75642811 118.83777621 70.91716884 114.26546334 75.6484375 109.25390625 C81.34461728 104.06764649 86.23508871 102.69362741 93.92578125 102.8046875 C94.58912476 102.80670166 95.25246826 102.80871582 95.93591309 102.81079102 C98.39484654 102.82119176 100.8536808 102.84911408 103.3125 102.875 C111.5728125 102.936875 111.5728125 102.936875 120 103 C120 87.82 120 72.64 120 57 C85.68 57 51.36 57 16 57 C16 70.86 16 84.72 16 99 C15.73786633 132.2909759 15.73786633 132.2909759 6.94677734 141.04443359 C5.01331918 142.60212248 3.19306762 143.83216258 1 145 C-0.44246094 145.804375 -0.44246094 145.804375 -1.9140625 146.625 C-7.47490172 148.93935914 -13.51855868 148.47267469 -19.4375 148.4375 C-20.62666016 148.45748047 -21.81582031 148.47746094 -23.04101562 148.49804688 C-31.11181979 148.49356558 -36.8403118 147.58953789 -43.0234375 142.25390625 C-43.46945312 141.69574219 -43.91546875 141.13757813 -44.375 140.5625 C-44.83648437 140.00691406 -45.29796875 139.45132813 -45.7734375 138.87890625 C-49.975992 132.44123518 -49.9256661 125.44665315 -49 118 C-46.36472223 111.20834664 -41.4639694 107.08726897 -35 104 C-23.92751157 100.30917052 -11.6714276 103 0 103 C0 69.01 0 35.02 0 0 Z M16 16 C16 24.25 16 32.5 16 41 C50.32 41 84.64 41 120 41 C120 32.75 120 24.5 120 16 C85.68 16 51.36 16 16 16 Z " fill="#1D4CA7" transform="translate(377,0)"/>
<path d="M0 0 C21.31826899 18.30296446 38.06062874 45.94689534 40.31982422 74.46923828 C42.26148882 107.92617875 35.96029274 138.79141328 13.44873047 164.69042969 C12.76166016 165.51027344 12.07458984 166.33011719 11.36669922 167.17480469 C-7.00009773 188.48690781 -35.31205175 203.94245407 -63.55126953 206.69042969 C-96.11914895 208.77028413 -126.19269857 200.63435064 -151.55126953 179.69042969 C-152.53740234 178.88089844 -153.52353516 178.07136719 -154.53955078 177.23730469 C-175.31981061 159.23313664 -187.81921808 134.55392178 -192.55126953 107.69042969 C-192.72110352 106.93165527 -192.8909375 106.17288086 -193.06591797 105.39111328 C-198.30824286 76.22079241 -189.57487692 45.58276907 -172.92675781 21.59716797 C-153.97013386 -4.68100617 -125.97514302 -22.09664433 -93.98876953 -27.55957031 C-59.70239968 -31.77353756 -26.41621654 -22.30037544 0 0 Z M-111.55126953 -7.30957031 C-112.27797852 -7.02549316 -113.0046875 -6.74141602 -113.75341797 -6.44873047 C-140.23130669 4.259666 -160.78713792 24.62905341 -172.08251953 50.84667969 C-181.21402644 73.62837735 -181.90027101 102.5804452 -172.80126953 125.50292969 C-167.97014317 136.64069884 -162.52900169 146.51528933 -154.55126953 155.69042969 C-153.87451172 156.5115625 -153.19775391 157.33269531 -152.50048828 158.17871094 C-139.90531462 172.98437212 -122.32958496 183.71969913 -103.55126953 188.69042969 C-102.01212891 189.13515625 -102.01212891 189.13515625 -100.44189453 189.58886719 C-75.28948069 196.02457871 -46.99550576 190.94616738 -24.64111328 178.22167969 C-10.67882954 169.84100476 0.09995351 158.93310091 9.44873047 145.69042969 C9.99658203 144.92214844 10.54443359 144.15386719 11.10888672 143.36230469 C25.21178413 121.85068517 28.98692164 92.63066647 24.19482422 67.67871094 C17.63594139 41.40883992 2.01692204 16.97832576 -21.37475586 2.60864258 C-47.86050898 -12.93710207 -82.33190716 -18.83778818 -111.55126953 -7.30957031 Z " fill="#6D4AAE" transform="translate(315.55126953125,183.3095703125)"/>
<path d="M0 0 C10.03095909 7.39570713 16.9993778 17.25296678 20.2421875 29.32421875 C21.31773871 39.9062165 21.30056063 50.77125401 16.2421875 60.32421875 C15.79488281 61.19304687 15.34757812 62.061875 14.88671875 62.95703125 C8.00995607 75.30939318 -2.23432953 82.50378224 -15.68359375 86.63671875 C-28.95481355 89.60461543 -42.38787704 86.41335074 -53.7578125 79.32421875 C-64.29079366 71.55447383 -71.20370954 61.23742085 -73.7578125 48.32421875 C-74.996422 37.16184019 -74.45473154 27.24107782 -68.7578125 17.32421875 C-68.08878906 16.11378906 -68.08878906 16.11378906 -67.40625 14.87890625 C-60.70151333 3.82920057 -50.46620895 -2.77631515 -38.35546875 -6.80859375 C-24.70308372 -10.09939666 -11.8508937 -7.20118045 0 0 Z " fill="#6D49AD" transform="translate(265.7578125,232.67578125)"/>
<path d="M0 0 C0.67220351 1.93558599 1.33758077 3.87354372 2 5.8125 C2.37125 6.89144531 2.7425 7.97039062 3.125 9.08203125 C4 12 4 12 4 15 C2.90558594 15.29390625 2.90558594 15.29390625 1.7890625 15.59375 C-24.15646511 23.02506161 -49.10564793 37.19459263 -68.66796875 55.7890625 C-70.67641083 57.69321362 -72.73250074 59.43978839 -74.875 61.1875 C-104.09403084 86.90262267 -123.95423712 127.82871279 -130 166 C-130.17273438 167.07765625 -130.34546875 168.1553125 -130.5234375 169.265625 C-132.02407266 179.48734273 -132.57811015 189.68590334 -133 200 C-137.95 200 -142.9 200 -148 200 C-148.60033319 151.37301152 -131.94438052 103.00552723 -100 66 C-99.02933594 64.86498047 -99.02933594 64.86498047 -98.0390625 63.70703125 C-87.10631402 51.25020073 -75.43591645 39.72580146 -62 30 C-61.45005371 29.59507324 -60.90010742 29.19014648 -60.33349609 28.77294922 C-44.86796177 17.49684723 -19.74767374 0 0 0 Z " fill="#424DAB" transform="translate(178,73)"/>
<path d="M0 0 C6.61988555 4.50102067 11.38405095 11.07626765 13.8125 18.71484375 C14.91207982 30.6184346 13.88005254 40.09490297 6.0625 49.58984375 C2.38844089 53.46915756 -1.23267568 55.80609905 -6.1875 57.71484375 C-6.95191406 58.06933594 -7.71632812 58.42382812 -8.50390625 58.7890625 C-15.16064846 61.08549322 -23.56429079 60.80686502 -30.0625 58.08984375 C-31.46296144 57.3441435 -32.8395653 56.55176259 -34.1875 55.71484375 C-34.88488281 55.29074219 -35.58226562 54.86664063 -36.30078125 54.4296875 C-43.87960982 49.30577139 -48.10592232 42.56861306 -50.1875 33.71484375 C-51.16326573 24.21396692 -50.60180526 16.700944 -45.1875 8.71484375 C-44.465625 7.64234375 -43.74375 6.56984375 -43 5.46484375 C-30.58541301 -6.67386353 -14.8974756 -8.75226692 0 0 Z " fill="#FDFDFE" transform="translate(257.1875,245.28515625)"/>
<path d="M0 0 C0.77472656 0.00451172 1.54945313 0.00902344 2.34765625 0.01367188 C4.23180524 0.02530242 6.11591365 0.04323094 8 0.0625 C8 4.6825 8 9.3025 8 14.0625 C6.43894531 14.20945313 4.87789062 14.35640625 3.26953125 14.5078125 C-34.54474749 18.3603176 -69.33330131 33.01832924 -94.0703125 62.84179688 C-107.12833172 79.35980023 -115.20794795 97.99050394 -121 118.0625 C-125.97093824 117.65096263 -130.44508386 117.26649168 -135 115.0625 C-135.33389441 109.77027354 -134.19004407 105.62230082 -132.5 100.6875 C-132.23155273 99.89875488 -131.96310547 99.11000977 -131.68652344 98.29736328 C-124.65450382 78.32530755 -113.29155398 60.57816995 -99 45.0625 C-98.28585938 44.26585937 -97.57171875 43.46921875 -96.8359375 42.6484375 C-72.67448209 16.99438253 -35.39090304 -0.39868435 0 0 Z " fill="#464CAB" transform="translate(231,125.9375)"/>
<path d="M0 0 C1.41791408 0.45445964 2.83428046 0.91374944 4.25 1.375 C5.43335938 1.75785156 5.43335938 1.75785156 6.640625 2.1484375 C8.86627958 2.95173667 10.90931672 3.89711662 13 5 C12.13339775 11.72713118 9.3111699 16.86719218 6.1875 22.8125 C5.60581055 23.92383301 5.02412109 25.03516602 4.42480469 26.18017578 C-0.66017429 35.70453137 -6.38799863 44.47754409 -13 53 C-14.15242188 54.49660156 -14.15242188 54.49660156 -15.328125 56.0234375 C-31.28171539 76.05150601 -50.06478722 92.80334073 -72 106 C-72.67659668 106.40750488 -73.35319336 106.81500977 -74.05029297 107.23486328 C-82.61925938 112.33230977 -91.3094946 116.7723508 -100.5625 120.5 C-101.37090332 120.82621338 -102.17930664 121.15242676 -103.01220703 121.48852539 C-108.27839455 123.5305719 -113.461175 124.89334166 -119 126 C-119.67031719 124.0429132 -120.33614683 122.08428887 -121 120.125 C-121.37125 119.03445313 -121.7425 117.94390625 -122.125 116.8203125 C-123 114 -123 114 -123 112 C-122.01326294 111.62415771 -122.01326294 111.62415771 -121.0065918 111.24072266 C-92.68918403 100.38066802 -66.20605402 87.21586611 -45 65 C-40 60 -40 60 -38.44873047 58.50585938 C-34.10580552 54.27601202 -30.28534063 49.82833173 -26.625 45 C-26.06337158 44.26015869 -25.50174316 43.52031738 -24.9230957 42.75805664 C-16.87850352 31.99552593 -10.57518794 20.53117561 -4.7265625 8.4609375 C-3.26984552 5.54091205 -1.72720435 2.76564624 0 0 Z " fill="#A547B1" transform="translate(419,346)"/>
<path d="M0 0 C4.34170523 2.3836813 8.2064129 4.78119883 12 8 C0.24581515 34.10031815 -31.81811527 51.93735932 -57 62 C-58.1446875 62.4640625 -59.289375 62.928125 -60.46875 63.40625 C-68.43097866 66.34725338 -76.39026225 67.94099491 -84.75 69.3125 C-85.79148193 69.48418701 -86.83296387 69.65587402 -87.90600586 69.83276367 C-94.6762177 70.86206783 -101.15323771 71.15252688 -108 71 C-108 66.05 -108 61.1 -108 56 C-106.43894531 55.85304688 -104.87789062 55.70609375 -103.26953125 55.5546875 C-63.51308854 51.50149572 -29.6667534 36.28624712 -3.9375 4.9375 C-2.61998738 3.29567659 -1.30561046 1.65130401 0 0 Z " fill="#9C47B0" transform="translate(347,349)"/>
<path d="M0 0 C0.99033234 0.00636726 0.99033234 0.00636726 2.00067139 0.01286316 C4.09982891 0.0295944 6.19800996 0.06723324 8.296875 0.10546875 C9.72394442 0.12052291 11.15102896 0.13421004 12.578125 0.14648438 C16.06802317 0.17947874 19.5573537 0.23122132 23.046875 0.29296875 C23.18366102 8.05333309 23.18366102 8.05333309 20.796875 10.60546875 C15.27895253 15.99798389 10.45488358 15.68739893 3.046875 15.73046875 C2.04914063 15.76333984 1.05140625 15.79621094 0.0234375 15.83007812 C-7.2629878 15.88379842 -7.2629878 15.88379842 -10.640625 12.9921875 C-12.44026636 9.29113934 -12.11056996 7.19934548 -10.953125 3.29296875 C-7.61336261 -0.17952265 -4.66582753 -0.05931137 0 0 Z " fill="#FAFBFD" transform="translate(473.953125,117.70703125)"/>
<path d="M0 0 C0.99033234 0.00636726 0.99033234 0.00636726 2.00067139 0.01286316 C4.09982891 0.0295944 6.19800996 0.06723324 8.296875 0.10546875 C9.72394442 0.12052291 11.15102896 0.13421004 12.578125 0.14648438 C16.06802317 0.17947874 19.5573537 0.23122132 23.046875 0.29296875 C22.94245675 1.73145267 22.82219602 3.16879212 22.6953125 4.60546875 C22.63005371 5.40597656 22.56479492 6.20648438 22.49755859 7.03125 C21.79115649 10.57627117 19.84508285 12.16100087 17.046875 14.29296875 C12.62570777 15.76669116 8.30441281 15.5991067 3.671875 15.66796875 C2.72570312 15.70535156 1.77953125 15.74273437 0.8046875 15.78125 C-3.90658562 15.84080261 -6.20919085 15.83367738 -10.11328125 12.99609375 C-11.953125 10.29296875 -11.953125 10.29296875 -12.015625 6.66796875 C-9.98290102 0.21108081 -6.33055947 -0.08047321 0 0 Z " fill="#FAFAFD" transform="translate(353.953125,117.70703125)"/>
<path d="M0 0 C4.95 0 9.9 0 15 0 C15.185625 2.454375 15.37125 4.90875 15.5625 7.4375 C15.62381104 8.21150146 15.68512207 8.98550293 15.74829102 9.78295898 C15.87169543 11.51961658 15.9376445 13.26008045 16 15 C15 16 15 16 11.62109375 16.09765625 C10.22652508 16.09191424 8.83198403 16.07890228 7.4375 16.0625 C4.983125 16.041875 2.52875 16.02125 0 16 C0 10.72 0 5.44 0 0 Z " fill="#C154B8" transform="translate(239,466)"/>
<path d="M0 0 C0 5.28 0 10.56 0 16 C-4.95 16 -9.9 16 -15 16 C-15 11.05 -15 6.1 -15 1 C-10.09931037 -0.63356321 -5.14261524 -0.05529694 0 0 Z " fill="#2C59AE" transform="translate(239,63)"/>
<path d="M0 0 C4.95 0.33 9.9 0.66 15 1 C15 5.95 15 10.9 15 16 C10.05 16 5.1 16 0 16 C0 10.72 0 5.44 0 0 Z " fill="#7051B0" transform="translate(92,257)"/>
<path d="M0 0 C1.905247 5.10334017 3.42589023 9.46342706 3 15 C1.2508503 15.33776684 -0.49936145 15.67003671 -2.25 16 C-3.22453125 16.185625 -4.1990625 16.37125 -5.203125 16.5625 C-8 17 -8 17 -12 17 C-12.33951619 15.43883181 -12.67132544 13.87598662 -13 12.3125 C-13.185625 11.44238281 -13.37125 10.57226562 -13.5625 9.67578125 C-13.98972047 7.06287036 -14.07616201 4.64186962 -14 2 C-12.04200486 1.66468585 -10.08359226 1.33180857 -8.125 1 C-6.48917969 0.7215625 -6.48917969 0.7215625 -4.8203125 0.4375 C-2 0 -2 0 0 0 Z " fill="#BC4BB4" transform="translate(282,462)"/>
<path d="M0 0 C4.29 1.65 8.58 3.3 13 5 C12.18663133 9.88021201 11.77939233 11.9117976 9.4375 15.875 C8.98246094 16.65617187 8.52742188 17.43734375 8.05859375 18.2421875 C7.70925781 18.82226562 7.35992187 19.40234375 7 20 C5.01501949 19.07487334 3.03713982 18.13449763 1.0625 17.1875 C-0.03964844 16.66542969 -1.14179688 16.14335937 -2.27734375 15.60546875 C-5 14 -5 14 -6 11 C-4.27443121 7.16601919 -2.1029377 3.64795315 0 0 Z " fill="#874BB0" transform="translate(361,324)"/>
<path d="M0 0 C0.66 4.95 1.32 9.9 2 15 C-7.5 17 -7.5 17 -12 17 C-14.4021604 12.1956792 -14.61122229 7.26896105 -15 2 C-13.62705778 1.65828994 -12.25149882 1.32708883 -10.875 1 C-10.10929688 0.814375 -9.34359375 0.62875 -8.5546875 0.4375 C-6 0 -6 0 0 0 Z " fill="#2552AB" transform="translate(208,66)"/>
</svg>
